<svg width="18" height="14" viewBox="0 0 18 14" fill="none" xmlns="http://www.w3.org/2000/svg">
<path fill-rule="evenodd" clip-rule="evenodd" d="M15.1568 1.11512C14.4849 0.428823 13.5246 0 12.4615 0C10.4238 0 8.77003 1.58252 8.77003 3.5342C8.77003 3.81141 8.80175 4.0801 8.86519 4.33892C5.79606 4.19134 3.07537 2.78601 1.25293 0.645029C0.934772 1.16895 0.753104 1.77675 0.753104 2.42402C0.753104 3.64948 1.4048 4.73141 2.39628 5.36522C1.79169 5.34818 1.22121 5.18759 0.722345 4.92474V4.9678C0.722345 6.68085 1.99546 8.10996 3.68622 8.43337C3.37671 8.51636 3.0499 8.55807 2.713 8.55807C2.4751 8.55807 2.24297 8.53654 2.01805 8.49527C2.48808 9.89882 3.85107 10.9211 5.46733 10.9484C4.20383 11.8967 2.61063 12.4619 0.880944 12.4619C0.582971 12.4619 0.288361 12.4457 0 12.4134C1.63405 13.4146 3.57616 14 5.66102 14C12.4543 14 16.1679 8.61549 16.1679 3.94463C16.1679 3.79078 16.1651 3.63737 16.1588 3.48666C16.8802 2.98831 17.5069 2.36615 18 1.65743C17.3387 1.93823 16.6264 2.12842 15.8796 2.21364C16.6423 1.77675 17.2277 1.08417 17.5035 0.258819C16.7894 0.66342 16.0002 0.957675 15.1568 1.11512Z"/>
</svg>
