<svg width="18" height="18" viewBox="0 0 18 18" fill="none" xmlns="http://www.w3.org/2000/svg">
<path fill-rule="evenodd" clip-rule="evenodd" d="M12.7319 0.158203H5.58414C2.67923 0.158203 0.315918 2.52151 0.315918 5.42642V12.5742C0.315918 15.4791 2.67923 17.8424 5.58414 17.8424H12.7319C15.6368 17.8424 18.0001 15.4791 18.0001 12.5742V5.42642C18.0001 2.52151 15.6368 0.158203 12.7319 0.158203ZM16.2211 12.5745C16.2211 14.5015 14.6589 16.0637 12.7319 16.0637H5.58413C3.65712 16.0637 2.09494 14.5015 2.09494 12.5745V5.42669C2.09494 3.49965 3.65712 1.9375 5.58413 1.9375H12.7319C14.6589 1.9375 16.2211 3.49965 16.2211 5.42669V12.5745ZM13.7405 5.55662C14.3458 5.55662 14.8364 5.06595 14.8364 4.46068C14.8364 3.85541 14.3458 3.36475 13.7405 3.36475C13.1352 3.36475 12.6446 3.85541 12.6446 4.46068C12.6446 5.06595 13.1352 5.55662 13.7405 5.55662ZM9.31842 11.9552C7.77495 11.9552 6.52374 10.704 6.52374 9.16046C6.52374 7.61696 7.77498 6.36572 9.31842 6.36572C10.8619 6.36572 12.1131 7.61696 12.1131 9.16046C12.1131 10.7039 10.8619 11.9552 9.31842 11.9552ZM9.31849 4.58691C6.79651 4.58691 4.74472 6.6387 4.74472 9.16065C4.74472 11.6826 6.79651 13.7344 9.31849 13.7344C11.8405 13.7344 13.8923 11.6826 13.8923 9.16065C13.8923 6.63867 11.8405 4.58691 9.31849 4.58691Z"/>
</svg>
