<svg width="17" height="17" viewBox="0 0 17 17" fill="none" xmlns="http://www.w3.org/2000/svg">
<path d="M13.685 10.9068C13.0969 10.3262 12.3628 10.3262 11.7784 10.9068C11.3327 11.3487 10.8869 11.7907 10.4487 12.2402C10.3288 12.3638 10.2277 12.39 10.0816 12.3076C9.79319 12.1503 9.48604 12.023 9.20885 11.8507C7.91657 11.0379 6.83405 9.99283 5.87514 8.8167C5.39943 8.23238 4.97616 7.60686 4.68025 6.90268C4.62031 6.76035 4.63155 6.66671 4.74767 6.55059C5.19341 6.11985 5.62792 5.67786 6.06617 5.23588C6.67673 4.62159 6.67673 3.90243 6.06243 3.2844C5.71407 2.93231 5.36572 2.58771 5.01736 2.23563C4.65777 1.87604 4.30192 1.51272 3.93859 1.15688C3.35051 0.583802 2.61634 0.583802 2.032 1.16063C1.58251 1.60261 1.15175 2.05583 0.694771 2.49033C0.271502 2.89111 0.057994 3.38179 0.013045 3.95487C-0.0581242 4.88753 0.170366 5.76776 0.492501 6.62551C1.15175 8.40094 2.15561 9.97785 3.37298 11.4237C5.01736 13.3789 6.98013 14.9258 9.27628 16.042C10.3101 16.5439 11.3814 16.9297 12.5463 16.9934C13.3479 17.0384 14.0446 16.8361 14.6027 16.2106C14.9848 15.7836 15.4156 15.394 15.8201 14.9858C16.4194 14.379 16.4232 13.6448 15.8276 13.0455C15.1159 12.3301 14.4005 11.6184 13.685 10.9068Z" fill="#7A1B1B"/>
</svg>
